HIERARCHY
ROOT Hips
{
  OFFSET 0 0 0
  CHANNELS 6 Xposition Yposition Zposition Zrotation Yrotation Xrotation
  JOINT LeftThigh
  {
    OFFSET 8.409438 0 -5.917753
    CHANNELS 3 Zrotation Yrotation Xrotation
    JOINT LeftLeg
    {
      OFFSET 0 0 -42.358652
      CHANNELS 3 Zrotation Yrotation Xrotation
      JOINT LeftFoot
      {
        OFFSET 0 0 -39.357303
        CHANNELS 3 Zrotation Yrotation Xrotation
      }
    }
  }
  JOINT RightThigh
  {
    OFFSET -8.409438 0 -5.917753
    CHANNELS 3 Zrotation Yrotation Xrotation
    JOINT RightLeg
    {
      OFFSET 0 0 -42.358652
      CHANNELS 3 Zrotation Yrotation Xrotation
      JOINT RightFoot
      {
        OFFSET 0 0 -39.357303
        CHANNELS 3 Zrotation Yrotation Xrotation
      }
    }
  }
  JOINT SpineLow
  {
    OFFSET 0 0 4.719101
    CHANNELS 3 Zrotation Yrotation Xrotation
    JOINT SpineMid
    {
      OFFSET 0 0 12.899191
      CHANNELS 3 Zrotation Yrotation Xrotation
      JOINT Chest
      {
        OFFSET 0 0 12.899191
        CHANNELS 3 Zrotation Yrotation Xrotation
        JOINT LeftShoulder
        {
          OFFSET 7.550562 1.41573 9.438202
          CHANNELS 3 Zrotation Yrotation Xrotation
          JOINT LeftArm
          {
            OFFSET 9.155056 0 4.247191
            CHANNELS 3 Zrotation Yrotation Xrotation
            JOINT LeftForearm
            {
              OFFSET 0 0 25.771955
              CHANNELS 3 Zrotation Yrotation Xrotation
              JOINT LeftHand
              {
                OFFSET 0 0 25.197169
                CHANNELS 3 Zrotation Yrotation Xrotation
              }
            }
          }
        }
        JOINT RightShoulder
        {
          OFFSET -7.550562 1.41573 9.438202
          CHANNELS 3 Zrotation Yrotation Xrotation
          JOINT RightArm
          {
            OFFSET -9.155056 0 4.247191
            CHANNELS 3 Zrotation Yrotation Xrotation
            JOINT RightForearm
            {
              OFFSET 0 0 -25.771955
              CHANNELS 3 Zrotation Yrotation Xrotation
              JOINT RightHand
              {
                OFFSET 0 0 -25.197169
                CHANNELS 3 Zrotation Yrotation Xrotation
              }
            }
          }
        }
        JOINT Neck
        {
          OFFSET 0 0 15.101124
          CHANNELS 3 Zrotation Yrotation Xrotation
          JOINT Head
          {
            OFFSET 0 0 11.325843
            CHANNELS 3 Zrotation Yrotation Xrotation
            End Site
            {
              OFFSET 0 0 14.157303
            }
          }
        }
      }
    }
  }
}
MOTION
Frames: 13
Frame Time: 0.0
0.0  89.887642  0.0  2.550183  26.339706  -90.449237  15.075001  -47.771553  -0.074753  -7.799576  51.363227  39.952662  5.560142  0.945355  1.014133  -18.47022  -3.666918  -43.429105  12.167636  17.29075  66.006788  -5.045985  0.268844  0.290931  -1.494276  -0.211784  1.111831  -4.093274  -0.509828  3.050885  -4.093274  -0.509828  3.050885  -11.692212  21.776668  3.628677  143.38731  43.706391  -138.849246  -22.801747  -6.720346  63.496658  76.901437  13.858839  7.94132  2.373944  2.065905  16.221171  9.09778  59.70522  -29.10331  -19.267531  -7.907922  -76.189954  72.726667  0.780277  -19.18062  -14.775575  0.237965  -1.214984  -11.081245  0.208003  -0.90611  
0.0  89.887642  0.0  2.338395  25.612274  -90.672838  16.939789  -47.755313  -0.855673  -8.392671  51.064448  40.21489  5.581264  1.146554  1.038529  -17.725594  -3.488165  -43.402482  11.363244  17.546052  65.575238  -4.913023  0.149307  0.343067  -1.413752  -0.180169  1.137105  -3.871886  -0.425712  3.117512  -3.871887  -0.425712  3.117512  -12.087385  21.565911  3.650404  143.840242  43.370518  -138.796762  -23.209394  -6.592069  63.636691  76.841154  13.924108  7.572689  2.015028  1.961856  16.133248  9.28676  59.10319  -29.135196  -19.109452  -8.306973  -76.137191  72.93026  0.649549  -19.637406  -14.723524  -0.047727  -1.337909  -11.04281  -0.003555  -1.005274  
0.0  89.887642  0.0  2.242423  25.242207  -90.673339  18.303243  -47.721507  -1.681329  -9.675457  51.269839  39.671583  5.802213  1.272102  1.046287  -17.313002  -3.05328  -43.640362  10.478557  17.39988  65.235058  -4.928718  0.091062  0.376746  -1.388018  -0.158171  1.142248  -3.800542  -0.366541  3.130144  -3.800542  -0.366541  3.130144  -12.275875  21.482995  3.645132  144.132164  43.097298  -138.816582  -23.677536  -6.426778  63.761713  76.764086  13.93419  7.593188  2.015225  1.894521  15.995603  9.403187  58.499702  -29.103317  -18.550328  -8.655728  -76.184533  72.867486  0.514121  -19.551274  -14.617215  -0.19676  -1.429113  -10.963431  -0.113456  -1.077272  
0.0  89.887642  0.0  2.111072  24.917821  -90.705658  18.997711  -47.763215  -2.157286  -10.845118  51.759638  38.86528  6.256791  1.374223  1.083443  -17.04967  -2.678127  -43.858541  9.643326  17.224697  64.899436  -4.851656  0.061994  0.405526  -1.45126  -0.119259  1.146816  -3.971523  -0.256977  3.140578  -3.971523  -0.256977  3.140578  -11.971487  21.371765  3.67238  144.27173  42.889979  -138.881729  -23.823941  -6.028511  64.05469  76.822554  14.170677  7.232917  2.416608  1.672889  15.848201  8.685161  57.916599  -29.509726  -17.451328  -9.14427  -76.447361  72.809987  0.455182  -19.362576  -14.226187  -0.329819  -1.425208  -10.670448  -0.214317  -1.077275  
0.0  89.887642  0.0  1.970492  24.769755  -90.703015  18.834512  -47.746559  -2.229666  -11.482266  52.160714  38.093183  6.79653  1.533826  1.163903  -17.175162  -2.521859  -43.9774  9.189152  16.916255  64.520399  -4.805726  -5.04E-4  0.442673  -1.494479  -0.115665  1.154731  -4.089479  -0.244612  3.162115  -4.089479  -0.244612  3.162115  -11.920353  21.331549  3.59006  144.458984  42.714121  -139.037716  -24.091659  -5.941811  64.137087  76.766555  14.195429  7.414421  2.611125  1.593605  15.627972  9.007841  57.675662  -29.407352  -17.231439  -9.166178  -76.254046  72.878145  0.378316  -19.230561  -13.999816  -0.338824  -1.427802  -10.50069  -0.221541  -1.079284  
0.0  89.887642  0.0  1.779002  24.616397  -90.769591  18.38917  -47.673322  -2.023575  -11.489625  52.290494  37.745937  7.050732  1.593046  1.112933  -17.734779  -2.575771  -44.171503  8.974548  16.547403  64.143331  -4.561088  0.079927  0.522946  -1.559157  -0.110906  1.16836  -4.26603  -0.227636  3.199228  -4.26603  -0.227636  3.199228  -11.721732  21.22403  3.479041  144.484374  42.49611  -139.242974  -23.8321  -5.465991  64.495256  76.894272  14.475979  6.805824  2.64242  1.42001  15.326891  9.346146  57.743098  -29.25111  -16.749243  -9.345215  -76.157484  73.041401  0.475805  -19.188537  -13.708287  -0.335468  -1.390771  -10.282011  -0.220529  -1.05123  
0.0  89.887642  0.0  1.591488  24.519861  -90.82251  17.888382  -47.57548  -1.851977  -10.873469  52.261151  37.948376  7.029946  1.611334  1.060654  -18.367062  -2.840797  -44.229473  9.140033  16.18765  63.824516  -4.531829  0.03952  0.592132  -1.56313  -0.101378  1.197295  -4.276487  -0.199547  3.277673  -4.276487  -0.199547  3.277673  -11.853461  20.930516  3.268091  144.478297  42.250265  -139.456034  -23.801028  -5.54009  64.48277  76.856128  14.504123  6.84997  2.650284  1.191029  15.041617  9.771676  57.963307  -28.971743  -17.005084  -9.266419  -75.883046  73.270688  0.508935  -19.320596  -13.676101  -0.397097  -1.375253  -10.257989  -0.267199  -1.040942  
0.0  89.887642  0.0  1.445852  24.36816  -90.890362  17.576101  -47.528139  -1.708666  -10.248983  52.194515  38.173429  6.841148  1.617703  0.99998  -19.113422  -3.246902  -44.266523  9.488136  15.87889  63.568188  -4.410543  0.04885  0.623874  -1.53843  -0.087029  1.239991  -4.208342  -0.158862  3.393355  -4.208342  -0.158862  3.393355  -12.120533  20.615136  2.968075  144.073232  41.961993  -139.58513  -23.595765  -5.536353  64.423564  77.355687  14.151964  7.995579  2.109636  0.901051  14.527605  10.480311  58.360162  -28.378052  -17.0349  -9.352478  -75.871818  73.450462  0.585638  -19.505327  -13.723629  -0.464522  -1.389314  -10.293783  -0.317377  -1.053044  
0.0  89.887642  0.0  1.382085  24.258568  -90.948831  17.368677  -47.504658  -1.621114  -9.846973  52.275047  38.306826  6.73722  1.646794  0.959184  -19.814467  -3.571074  -44.307143  9.815001  15.650652  63.388131  -4.334187  0.05326  0.64818  -1.519826  -0.068665  1.283258  -4.156594  -0.10694  3.510382  -4.156594  -0.10694  3.510382  -12.236484  20.304864  2.738361  143.933313  41.772455  -139.728396  -23.647406  -5.552322  64.257759  77.410954  14.157302  8.203492  2.059422  0.783047  14.17392  10.991192  58.54983  -27.859146  -17.281957  -9.258994  -75.814879  73.555276  0.692215  -19.602438  -13.790447  -0.526833  -1.4029  -10.344035  -0.363681  -1.064702  
0.0  89.887642  0.0  1.369455  24.059205  -91.069797  17.45066  -47.487613  -1.433442  -9.679426  52.343655  38.335757  6.770398  1.699268  0.950449  -20.400805  -3.851241  -44.365758  10.061459  15.492034  63.270814  -4.186442  0.117506  0.65652  -1.477106  -0.054299  1.328609  -4.039104  -0.067201  3.633378  -4.039104  -0.067201  3.633378  -12.413536  20.088435  2.541149  143.568807  41.652874  -139.837185  -23.766059  -5.566395  64.034718  77.477504  14.218188  8.273194  1.79183  0.717827  13.826126  11.586617  58.753189  -27.267948  -17.598512  -9.08847  -75.698414  73.648077  0.888641  -19.711062  -13.865437  -0.505384  -1.399039  -10.400231  -0.347502  -1.06139  
0.0  89.887642  0.0  1.450707  23.983201  -91.085956  17.409381  -47.407927  -1.280123  -9.831707  52.503278  38.052769  6.836171  1.721487  0.914266  -21.006891  -3.938646  -44.522917  10.299272  15.210943  63.222494  -4.120409  0.13803  0.688582  -1.454959  -0.032087  1.345414  -3.977355  -0.006739  3.677954  -3.977354  -0.006739  3.677954  -12.535336  19.943011  2.440018  143.426424  41.603439  -139.993565  -23.857438  -5.502323  63.891455  77.485341  14.209893  8.43331  1.677966  0.703309  13.650308  11.858053  58.856798  -26.924583  -17.707595  -8.911001  -75.725548  73.749137  1.037733  -19.792804  -13.991612  -0.49202  -1.362264  -10.494802  -0.33803  -1.033602  
0.0  89.887642  0.0  1.54884  23.858867  -91.116674  17.314515  -47.324773  -1.005444  -9.929336  52.621574  37.771491  7.022993  1.847143  0.915143  -21.425833  -4.033459  -44.689539  10.410305  15.04438  63.173946  -4.015173  0.240289  0.716982  -1.473595  -0.007691  1.339726  -4.02693  0.060585  3.660915  -4.02693  0.060585  3.660915  -12.327955  19.882318  2.541894  143.148547  41.644669  -140.086294  -24.025158  -5.527202  63.743848  77.496919  14.178248  8.444528  1.732291  0.662039  13.636388  12.053425  58.978217  -26.704824  -17.928204  -8.558832  -75.616481  73.831094  1.250704  -19.992311  -13.886904  -0.389843  -1.242243  -10.415981  -0.26431  -0.941116  
0.0  89.887642  0.0  1.658659  23.746259  -91.091133  17.098638  -47.20483  -0.708019  -9.942269  52.711467  37.507507  7.058365  1.905942  0.863428  -21.745573  -3.934446  -44.945392  10.453837  14.781342  63.234018  -3.947408  0.255225  0.733753  -1.460682  0.0029  1.331728  -3.991079  0.088312  3.638445  -3.991078  0.088312  3.638444  -12.335348  19.914581  2.631156  143.128591  41.713571  -140.120245  -24.071627  -5.484638  63.753475  77.481645  14.112594  8.458276  1.683177  0.733207  13.642098  12.038978  59.040608  -26.641596  -17.967866  -8.31583  -75.625298  73.941433  1.447334  -20.142848  -13.971428  -0.311318  -1.176501  -10.47919  -0.206713  -0.890045  
